<svg width="33" height="33" viewBox="0 0 33 33" fill="none" xmlns="http://www.w3.org/2000/svg">
<path d="M10.5625 2.7085H21.9375C26.2709 2.7085 29.7917 6.22933 29.7917 10.5627V21.9377C29.7917 24.0207 28.9642 26.0185 27.4913 27.4914C26.0183 28.9643 24.0206 29.7918 21.9375 29.7918H10.5625C6.22921 29.7918 2.70837 26.271 2.70837 21.9377V10.5627C2.70837 8.47961 3.53586 6.48187 5.00881 5.00893C6.48175 3.53599 8.47949 2.7085 10.5625 2.7085ZM10.2917 5.41683C8.99878 5.41683 7.7588 5.93044 6.84456 6.84468C5.93032 7.75892 5.41671 8.9989 5.41671 10.2918V22.2085C5.41671 24.9033 7.59692 27.0835 10.2917 27.0835H22.2084C23.5013 27.0835 24.7413 26.5699 25.6555 25.6556C26.5698 24.7414 27.0834 23.5014 27.0834 22.2085V10.2918C27.0834 7.59704 24.9032 5.41683 22.2084 5.41683H10.2917ZM23.3594 7.44808C23.8083 7.44808 24.2389 7.62642 24.5563 7.94386C24.8738 8.26131 25.0521 8.69185 25.0521 9.14079C25.0521 9.58972 24.8738 10.0203 24.5563 10.3377C24.2389 10.6552 23.8083 10.8335 23.3594 10.8335C22.9105 10.8335 22.4799 10.6552 22.1625 10.3377C21.845 10.0203 21.6667 9.58972 21.6667 9.14079C21.6667 8.69185 21.845 8.26131 22.1625 7.94386C22.4799 7.62642 22.9105 7.44808 23.3594 7.44808ZM16.25 9.47933C18.0458 9.47933 19.768 10.1927 21.0377 11.4625C22.3075 12.7322 23.0209 14.4544 23.0209 16.2502C23.0209 18.0459 22.3075 19.7681 21.0377 21.0379C19.768 22.3076 18.0458 23.021 16.25 23.021C14.4543 23.021 12.7321 22.3076 11.4623 21.0379C10.1926 19.7681 9.47921 18.0459 9.47921 16.2502C9.47921 14.4544 10.1926 12.7322 11.4623 11.4625C12.7321 10.1927 14.4543 9.47933 16.25 9.47933ZM16.25 12.1877C15.1726 12.1877 14.1393 12.6157 13.3774 13.3775C12.6156 14.1394 12.1875 15.1727 12.1875 16.2502C12.1875 17.3276 12.6156 18.3609 13.3774 19.1228C14.1393 19.8847 15.1726 20.3127 16.25 20.3127C17.3275 20.3127 18.3608 19.8847 19.1227 19.1228C19.8845 18.3609 20.3125 17.3276 20.3125 16.2502C20.3125 15.1727 19.8845 14.1394 19.1227 13.3775C18.3608 12.6157 17.3275 12.1877 16.25 12.1877Z" fill="black"/>
</svg>
