<svg width="33" height="33" viewBox="0 0 33 33" fill="none" xmlns="http://www.w3.org/2000/svg">
<path d="M21.6666 10.8335C23.8215 10.8335 25.8882 11.6895 27.4119 13.2133C28.9356 14.737 29.7916 16.8036 29.7916 18.9585V28.4377H24.375V18.9585C24.375 18.2402 24.0896 17.5513 23.5817 17.0434C23.0738 16.5355 22.3849 16.2502 21.6666 16.2502C20.9484 16.2502 20.2595 16.5355 19.7516 17.0434C19.2437 17.5513 18.9583 18.2402 18.9583 18.9585V28.4377H13.5416V18.9585C13.5416 16.8036 14.3977 14.737 15.9214 13.2133C17.4451 11.6895 19.5118 10.8335 21.6666 10.8335Z" stroke="black" stroke-width="2" stroke-linecap="round" stroke-linejoin="round"/>
<path d="M8.12498 12.1877H2.70831V28.4377H8.12498V12.1877Z" stroke="black" stroke-width="2" stroke-linecap="round" stroke-linejoin="round"/>
<path d="M5.41665 8.12516C6.91242 8.12516 8.12498 6.9126 8.12498 5.41683C8.12498 3.92106 6.91242 2.7085 5.41665 2.7085C3.92088 2.7085 2.70831 3.92106 2.70831 5.41683C2.70831 6.9126 3.92088 8.12516 5.41665 8.12516Z" stroke="black" stroke-width="2" stroke-linecap="round" stroke-linejoin="round"/>
</svg>
